<?xml version="1.0" encoding="iso-8859-1"?>
<!-- Generator: Adobe Illustrator 19.0.0, SVG Export Plug-In . SVG Version: 6.00 Build 0)  -->
<svg xmlns="http://www.w3.org/2000/svg" xmlns:xlink="http://www.w3.org/1999/xlink" version="1.1" id="Capa_1" x="0px" y="0px" viewBox="0 0 490 490" style="enable-background:new 0 0 490 490;" xml:space="preserve" width="512px" height="512px">
<g>
	<path d="M203.549,64.025c-56.304,0-92.653,37.631-92.653,95.86c0,48.536,72.982,145.963,81.32,156.868l11.332,14.967l11.403-14.967   c8.268-10.975,81.25-108.403,81.25-156.868C296.202,101.656,259.853,64.025,203.549,64.025z M203.53,280.515   c-32.317-45.322-62.009-98.452-62.009-120.63c0-41.458,22.608-65.235,62.028-65.235c39.42,0,62.028,23.777,62.028,65.235   C265.577,180.044,240.134,229.019,203.53,280.515z" fill="#a6d49f"/>
	<circle cx="203.478" cy="160.526" r="30.005" fill="#a6d49f"/>
	<path d="M370.199,357.701l-24.53-24.527c33.924-35.378,54.811-83.357,54.811-136.242C400.48,88.169,312.311,0,203.549,0   S6.617,88.169,6.617,196.932c0,108.762,88.169,196.931,196.932,196.931c44.838,0,86.154-15.012,119.257-40.247l25.742,25.738   l-22.85,22.853L413.49,490l69.893-69.901l-87.793-87.793L370.199,357.701z M37.242,196.932   c0-91.702,74.605-166.307,166.307-166.307s166.307,74.605,166.307,166.307c0,91.702-74.605,166.306-166.307,166.306   S37.242,288.633,37.242,196.932z M413.49,446.694l-44.487-44.487l26.588-26.595l44.487,44.487L413.49,446.694z" fill="#a6d49f"/>
</g>
<g>
</g>
<g>
</g>
<g>
</g>
<g>
</g>
<g>
</g>
<g>
</g>
<g>
</g>
<g>
</g>
<g>
</g>
<g>
</g>
<g>
</g>
<g>
</g>
<g>
</g>
<g>
</g>
<g>
</g>
</svg>
